<?xml version="1.0" encoding="utf-8"?>
<!-- Generator: Adobe Illustrator 27.8.1, SVG Export Plug-In . SVG Version: 6.00 Build 0)  -->
<svg version="1.1" id="Calque_1" xmlns="http://www.w3.org/2000/svg" xmlns:xlink="http://www.w3.org/1999/xlink" x="0px" y="0px"
	 viewBox="0 0 256 256" style="enable-background:new 0 0 256 256;" xml:space="preserve">
<style type="text/css">
	.st0{fill:#BA8A8A;}
	.st1{fill:#939393;}
</style>
<g>
	<polygon class="st0" points="341.4,51.5 347.5,51.5 342.2,42.2 336.8,32.9 331.4,42.2 326.1,51.5 332.2,51.5 332.2,144.4 
		326.1,144.4 331.4,153.7 336.8,162.9 342.2,153.7 347.5,144.4 341.4,144.4 	"/>
	<polygon class="st0" points="374.7,125.2 371.6,130.4 382.4,130.4 393.1,130.4 387.7,121.2 382.4,111.9 379.3,117.1 298.9,70.7 
		302,65.4 291.2,65.4 280.5,65.4 285.9,74.7 291.2,84 294.3,78.7 	"/>
	<polygon class="st0" points="294.3,117.1 291.2,111.9 285.9,121.2 280.5,130.4 291.2,130.4 302,130.4 298.9,125.2 379.3,78.7 
		382.4,84 387.7,74.7 393.1,65.4 382.4,65.4 371.6,65.4 374.7,70.7 	"/>
	<circle class="st0" cx="336.8" cy="97.9" r="22.7"/>
</g>
<path class="st1" d="M244.2,171.4c-9.2,2.3-18.4,4.8-27.7,6.8c-14.1,3-31-4-36.3-19c-0.8-2.3-1.4-4.7,0.6-6.4
	c4.4-3.8,8.8-7.8,13.8-10.7c7.2-4.2,14.9-7.5,22.4-11c2.4-1.1,5.1-1.7,7.5-2.7c1.2-0.5,2.6-1.1,3.1-2.1c2.5-4.9,5.4-9.4,10.2-12.5
	c1.8-1.2,1.8-2.9,0.2-4.2c-1.7-1.5-3.8-2.6-5.7-3.8c-3.1-1.9-3.4-3.2-2.2-6.5c1.2-3.2,2.4-6.5,3.3-9.8c2.2-8.7,1.9-17.2-1.7-25.5
	c-0.4-1-1.2-1.9-2.1-3.5c-0.4,1.3-0.7,1.7-0.7,2.2c-0.6,6.7-1.2,13.3-1.9,20c-0.5,5.1-2.9,9.4-6.5,12.8c-6.9,6.6-15.4,9.2-24.8,8.7
	c-16.2-1-21.5-10.3-20.6-24.7c0.7-11.6,3-23.1,4.6-35c-4.6,0.6-7-2-8.7-5.5c-0.7-1.5-1.3-3.1-1.9-4.6c-2.1-5.5-3.9-11.2-6.3-16.6
	c-2.4-5.3-5.6-10.3-11.6-13.6l0,0c2.1,8.2,5.3,15.9,3.4,24.6c-11-5-21.2-10.4-32.6-12.6c5.3,4,10.9,7.8,15.9,12.2
	c2.8,2.5,5.2,5.8,6.8,9.2c5,11.1-3.6,24.3-14,29.4c-8.5,4.2-16.5,2.3-24.4-1.5c-9-4.4-16.5-11-24.1-17.3c-1.8-1.5-2.8-1.3-4.8-0.1
	c-4.5,2.8-8.1,7.2-14,7.9c-7.1,0.8-7.6,2.2-4.2,8.6c0.1,0.3,0.2,0.6,0.6,1.5c-3,0.7-5.9,1.6-8.8,1.9c-9.9,1-19.5,3.1-28.3,7.8
	C18.1,78,14,81.7,9.6,84.9c0.2,0.3,0.4,0.6,0.6,0.9c2.5-0.9,5-2,7.6-2.6c5.9-1.3,11.9-2.6,17.8-3.4c6.1-0.9,12.3-2.1,18.3-1.5
	c9.4,0.9,17.4,5.2,22.4,13.7c2.4,4,3,8.2,0.1,12c-2.2,2.8-4.9,5.7-8,7.3c-10,5.4-20.2,10.4-30.5,15.4c-3.2,1.6-5.8,3.5-7.6,6.7
	c-1,1.8-2.7,3.4-4.3,4.9c-2.5,2.3-5.1,4.4-7.6,6.5c4.1,3.3,8.1,6.4,12,9.5c-6.2,16.1-8.1,30.5,3.6,41.1c0-0.5,0-0.9,0-1.3
	c-0.2-6.7-0.9-13.4-0.5-20c0.3-5.3,1.8-10.5,6.3-14.2c10-8.1,21.1-10.1,33.2-5.9c2.3,0.8,4.6,2.6,6,4.6c5.8,8,7.1,17.3,5.8,26.9
	c-0.8,6.4-2.7,12.6-3.8,19c-1,6,0.4,8.2,6,10.8c0.9,0.4,2,1,2.3,1.8c2,4.8,3.6,9.8,5.9,14.5c2.5,5.2,5.6,10.2,8.5,15.2
	c1,1.7,2.5,3.1,4.2,5.3c1.5-8.5-3.9-16.2,0.6-23.8c9.9,6,20.4,10.5,31.8,12.9c-7.9-4.6-14.5-10.7-20.2-17.6
	c-3.8-4.6-6.2-9.9-4.9-16.2c2.3-11.2,15.5-19.4,25.7-18.3c6.8,0.7,13,3.2,18.8,6.6c6.8,4.1,13.2,8.8,19.8,13.3
	c2.4,1.6,4.5,1.5,6.8-0.5c2.1-1.9,4.6-3.3,6.9-4.9c2.5-1.7,4.8-4.2,8.5-1.4c0.1-2,0-3.5-0.5-4.8c-1-2.6-0.8-4.6,2.1-5.6
	c3.6-1.3,7.3-2.5,11-3.6c8.3-2.4,17.3-2.7,23.6-10.1c2.2-2.6,5.5-4.4,8.9-7.1C245.2,171.1,244.7,171.2,244.2,171.4z M153.2,139.9
	l-2.2,32.4l-24.4-21.4l-31.5,7.9L108,129l-17.3-27.5l32.3,3l20.8-24.9l7.1,31.7l30.1,12.1L153.2,139.9z"/>
</svg>
