<?xml version="1.0" encoding="utf-8"?>
<!-- Generator: Adobe Illustrator 27.8.1, SVG Export Plug-In . SVG Version: 6.00 Build 0)  -->
<svg version="1.1" id="Calque_1" xmlns="http://www.w3.org/2000/svg" xmlns:xlink="http://www.w3.org/1999/xlink" x="0px" y="0px"
	 viewBox="0 0 112 118" style="enable-background:new 0 0 112 118;" xml:space="preserve">
<style type="text/css">
	.st0{fill:#8E8DBE;}
</style>
<path class="st0" d="M105.1,77.3c-3.9,1-7.8,2-11.7,2.9c-6,1.3-13.1-1.7-15.4-8c-0.3-1-0.6-2,0.3-2.7c1.9-1.6,3.7-3.3,5.8-4.5
	c3-1.8,6.3-3.2,9.5-4.7c1-0.5,2.1-0.7,3.2-1.2c0.5-0.2,1.1-0.5,1.3-0.9c1-2.1,2.3-4,4.3-5.3c0.8-0.5,0.7-1.2,0.1-1.8
	c-0.7-0.6-1.6-1.1-2.4-1.6c-1.3-0.8-1.5-1.3-0.9-2.7c0.5-1.4,1-2.7,1.4-4.1c0.9-3.7,0.8-7.3-0.7-10.8c-0.2-0.4-0.5-0.8-0.9-1.5
	c-0.2,0.5-0.3,0.7-0.3,0.9c-0.3,2.8-0.5,5.6-0.8,8.4c-0.2,2.1-1.2,4-2.8,5.4c-2.9,2.8-6.5,3.9-10.5,3.7c-6.9-0.4-9.1-4.4-8.7-10.5
	c0.3-4.9,1.3-9.8,2-14.8c-2,0.2-3-0.8-3.7-2.3c-0.3-0.6-0.6-1.3-0.8-2c-0.9-2.3-1.6-4.8-2.7-7c-1-2.3-2.4-4.4-4.9-5.8l0,0
	C66.7,10,68,13.2,67.2,17c-4.6-2.1-9-4.4-13.8-5.3c2.3,1.7,4.6,3.3,6.7,5.2c1.2,1,2.2,2.4,2.9,3.9c2.1,4.7-1.5,10.3-5.9,12.4
	c-3.6,1.8-7,1-10.3-0.7c-3.8-1.9-7-4.7-10.2-7.3c-0.8-0.6-1.2-0.6-2,0c-1.9,1.2-3.4,3-5.9,3.3c-3,0.4-3.2,0.9-1.8,3.7
	c0.1,0.1,0.1,0.2,0.3,0.6c-1.3,0.3-2.5,0.7-3.7,0.8c-4.2,0.4-8.2,1.3-12,3.3c-2,1.1-3.7,2.6-5.6,3.9C6,40.9,6,41,6.1,41.1
	c1.1-0.4,2.1-0.9,3.2-1.1c2.5-0.6,5-1.1,7.6-1.5c2.6-0.4,5.2-0.9,7.7-0.6c4,0.4,7.3,2.2,9.5,5.8c1,1.7,1.3,3.5,0,5.1
	c-0.9,1.2-2.1,2.4-3.4,3.1c-4.2,2.3-8.6,4.4-12.9,6.5c-1.4,0.7-2.5,1.5-3.2,2.8c-0.4,0.8-1.2,1.4-1.8,2.1c-1.1,1-2.2,1.9-3.2,2.7
	c1.8,1.4,3.4,2.7,5.1,4C12,76.9,11.2,83,16.2,87.5c0-0.2,0-0.4,0-0.5c-0.1-2.8-0.4-5.6-0.2-8.5c0.1-2.2,0.8-4.4,2.7-6
	c4.2-3.4,8.9-4.3,14-2.5c1,0.3,1.9,1.1,2.5,1.9c2.4,3.4,3,7.3,2.5,11.4c-0.4,2.7-1.1,5.4-1.6,8.1c-0.4,2.5,0.2,3.4,2.5,4.6
	c0.4,0.2,0.8,0.4,1,0.8c0.9,2,1.5,4.1,2.5,6.1c1.1,2.2,2.4,4.3,3.6,6.4c0.4,0.7,1,1.3,1.8,2.2c0.6-3.6-1.7-6.9,0.2-10.1
	c4.2,2.6,8.6,4.4,13.4,5.5c-3.3-1.9-6.1-4.5-8.6-7.5c-1.6-1.9-2.6-4.2-2.1-6.9c1-4.7,6.6-8.2,10.9-7.7c2.9,0.3,5.5,1.3,7.9,2.8
	c2.9,1.7,5.6,3.7,8.4,5.6c1,0.7,1.9,0.6,2.9-0.2c0.9-0.8,1.9-1.4,2.9-2.1c1-0.7,2-1.8,3.6-0.6c0-0.9,0-1.5-0.2-2
	c-0.4-1.1-0.3-1.9,0.9-2.4c1.5-0.5,3.1-1.1,4.6-1.5c3.5-1,7.3-1.1,10-4.3c0.9-1.1,2.3-1.9,3.8-3C105.6,77.2,105.4,77.3,105.1,77.3z
	 M63.4,66.8l-7.1,13.7l-7.6-13.5l-14.9-6.5l14.7-7l7.1-13.7l7.6,13.5l14.9,6.5L63.4,66.8z"/>
</svg>
