<svg width="24" height="24" viewBox="0 0 24 24" xmlns="http://www.w3.org/2000/svg"
    fill="#313131">
    <path
        d="M13.5517 15.5C13.1517 15.9 12.635 16.0958 12.0017 16.0875C11.3684 16.0792 10.9017 15.85 10.6017 15.4L5.00171 7L13.4017 12.6C13.8517 12.9 14.0892 13.3583 14.1142 13.975C14.1392 14.5917 13.9517 15.1 13.5517 15.5ZM12.0017 4C11.0184 4 10.0725 4.1375 9.16421 4.4125C8.25587 4.6875 7.40171 5.1 6.60171 5.65L8.50171 6.85C9.05171 6.56667 9.62254 6.35417 10.2142 6.2125C10.8059 6.07083 11.4017 6 12.0017 6C14.2184 6 16.1059 6.77917 17.6642 8.3375C19.2225 9.89583 20.0017 11.7833 20.0017 14C20.0017 14.7 19.9059 15.3917 19.7142 16.075C19.5225 16.7583 19.2517 17.4 18.9017 18H5.10171C4.71838 17.3667 4.43921 16.7083 4.26421 16.025C4.08921 15.3417 4.00171 14.6333 4.00171 13.9C4.00171 13.3 4.07254 12.7167 4.21421 12.15C4.35588 11.5833 4.56838 11.0333 4.85171 10.5L3.65171 8.6C3.15171 9.38333 2.75587 10.2167 2.46421 11.1C2.17254 11.9833 2.01838 12.9 2.00171 13.85C1.98504 14.8 2.09337 15.7083 2.32671 16.575C2.56004 17.4417 2.90171 18.2667 3.35171 19.05C3.53504 19.35 3.78504 19.5833 4.10171 19.75C4.41838 19.9167 4.75171 20 5.10171 20H18.9017C19.2517 20 19.585 19.9167 19.9017 19.75C20.2184 19.5833 20.4684 19.35 20.6517 19.05C21.085 18.3 21.4184 17.5042 21.6517 16.6625C21.885 15.8208 22.0017 14.9333 22.0017 14C22.0017 12.6167 21.7392 11.3208 21.2142 10.1125C20.6892 8.90417 19.9725 7.84583 19.0642 6.9375C18.1559 6.02917 17.0934 5.3125 15.8767 4.7875C14.66 4.2625 13.3684 4 12.0017 4Z"
    />
</svg>