<?xml version="1.0" encoding="UTF-8"?>
<svg id="ASTEROID" xmlns="http://www.w3.org/2000/svg" viewBox="0 0 24 24" height="24"
  width="24">
  <defs>
    <style>
      .cls-1 {
      fill: #b6b5d1;
      stroke-width: 0px;
      }

      .cls-2 {
      fill: none;
      stroke: #b6b5d1;
      stroke-miterlimit: 10;
      stroke-width: 2px;
      }
    </style>
  </defs>
  <path class="cls-2"
    d="m18.5,16c-.62.62-2.26,3.63-3,4-1.56.79-3.5.85-5.18.55-1.55-.28-3.75-2.34-4.95-3.54-.78-.78-1.73-2.57-2.12-3.54-.66-1.62.31-3.23.76-4.9.35-1.31.69-2.91,1.72-3.94,1.67-1.67,5.24-1.17,7.42-1.06,1.91.1,2.78-.04,4.24,1.41,1.22,1.22,3.27,4.79,3.54,6.36.42,2.47-.52,2.74-2.42,4.64Z" />
  <circle class="cls-2" cx="7.5" cy="16" r="2" />
  <circle class="cls-1" cx="6.5" cy="9" r="2" />
  <circle class="cls-1" cx="14.62" cy="18.5" r="1.49" />
  <circle class="cls-2" cx="13.5" cy="6" r="2" />
  <circle class="cls-1" cx="18.5" cy="10" r="2" />
  <circle class="cls-1" cx="13.5" cy="13" r="1" />
</svg>