<?xml version="1.0" encoding="UTF-8"?>
<svg id="DEBRIS_FIELD" xmlns="http://www.w3.org/2000/svg" viewBox="0 0 24 24" height="24"
  width="24">
  <defs>
    <style>
      .cls-1 {
      fill: #b6b5d1;
      stroke-width: 0px;
      }

      .cls-2 {
      stroke-width: 2px;
      }

      .cls-2, .cls-3 {
      fill: none;
      stroke: #b6b5d1;
      stroke-miterlimit: 10;
      }
    </style>
  </defs>
  <circle class="cls-1" cx="18.55" cy="4" r="1" />
  <circle class="cls-1" cx="17.55" cy="8" r="1" />
  <circle class="cls-1" cx="4.5" cy="20" r="1" />
  <circle class="cls-1" cx="20.05" cy="6.5" r="1" />
  <path class="cls-2"
    d="m3.57,19.43c0-.2-.25-.96-.19-1.14.12-.39.41-.72.73-.96.29-.22.99-.26,1.38-.27.26,0,.71.12.93.21.38.15.49.57.7.91.16.27.38.58.39.92.01.55-.64,1.07-1,1.42-.32.31-.44.48-.91.49-.4.01-1.33-.21-1.63-.42-.48-.32-.38-.52-.4-1.15Z" />
  <path class="cls-2"
    d="m15.69,6.63c0-.31-.38-1.44-.29-1.72.18-.59.62-1.09,1.11-1.45.44-.33,1.49-.39,2.09-.41.39-.01,1.07.18,1.41.31.57.22.74.85,1.06,1.37.25.4.57.87.59,1.38.02.82-.96,1.61-1.51,2.14-.48.46-.66.72-1.38.74-.6.02-2-.32-2.46-.63-.73-.49-.57-.79-.6-1.73Z" />
  <polygon class="cls-2" points="8.14 3.5 8.98 5.42 8.02 8.47 3.2 9.87 3.02 7.12 6.26 5.84 8.14 3.5" />
  <rect class="cls-3" x="15.48" y="17.16" width="2" height="2"
    transform="translate(-6.81 25.85) rotate(-66.06)" />
  <rect class="cls-3" x="17.16" y="19.55" width="2" height="2"
    transform="translate(-7.99 28.8) rotate(-66.06)" />
  <rect class="cls-3" x="18.63" y="17.47" width="2" height="2"
    transform="translate(-5.22 28.91) rotate(-66.06)" />
  <polygon class="cls-2" points="11.63 10.5 8.5 14 12.5 17 16.5 14 13.41 13.14 14.5 12 11.63 10.5" />
  <line class="cls-3" x1="8.27" y1="14" x2="13" y2="13.5" />
</svg>