<?xml version="1.0" encoding="UTF-8"?>
<svg id="JUMP_GATE" xmlns="http://www.w3.org/2000/svg" viewBox="0 0 24 24" height="24"
  width="24">
  <defs>
    <style>
      .cls-1 {
      stroke-width: 2px;
      }

      .cls-1, .cls-2 {
      fill: none;
      stroke: #b6b5d1;
      stroke-linecap: round;
      stroke-linejoin: round;
      }

      .cls-2 {
      stroke-width: 1.75px;
      }
    </style>
  </defs>
  <path class="cls-1"
    d="m12,2.68C6.75,2.68,2.5,6.93,2.5,12.18c0,2.85,1.26,5.4,3.25,7.14-.79-1.19-1.25-3.61-1.25-5.14,0-1.25.31-2.43.85-3.47l2.55.16-1.06-2.13c1.15-1.1,2.15-1.83,3.82-2.01l1.47,1.68,1.45-1.64c1.58.23,2.5.94,3.6,2l-1.05,2.1,2.52-.15c.54,1.04.85,2.21.85,3.47,0,1.53-.46,3.96-1.25,5.14,1.99-1.74,3.25-4.29,3.25-7.14,0-5.25-4.25-9.5-9.5-9.5Z" />
  <path class="cls-2"
    d="m12.97,16.23c0,.36-.29.64-.64.64-.71,0-1.29-.58-1.29-1.29,0-1.07.86-1.93,1.93-1.93,1.42,0,2.57,1.15,2.57,2.57,0,1.78-1.44,3.22-3.22,3.22-2.13,0-3.86-1.73-3.86-3.86,0-2.49,2.02-4.51,4.51-4.51" />
</svg>