<?xml version="1.0" encoding="UTF-8"?>
<svg id="ASTEROID_FIELD" xmlns="http://www.w3.org/2000/svg" viewBox="0 0 24 24" height="24"
  width="24">
  <defs>
    <style>
      .cls-1 {
      fill: #b6b5d1;
      stroke-width: 0px;
      }

      .cls-2 {
      fill: none;
      stroke: #b6b5d1;
      stroke-miterlimit: 10;
      stroke-width: 2px;
      }
    </style>
  </defs>
  <circle class="cls-1" cx="18.5" cy="4" r="1" />
  <circle class="cls-1" cx="17.5" cy="8" r="1" />
  <circle class="cls-1" cx="12.5" cy="14" r="1" />
  <circle class="cls-1" cx="4.5" cy="16" r="1" />
  <circle class="cls-1" cx="20" cy="6.5" r="1" />
  <circle class="cls-1" cx="4.5" cy="8" r="1" />
  <circle class="cls-1" cx="7.5" cy="7" r="1" />
  <circle class="cls-1" cx="5.5" cy="19" r="1" />
  <path class="cls-2"
    d="m15.59,18.97c.07-.21.1-1.05.23-1.22.26-.35.68-.57,1.09-.69.37-.11,1.09.11,1.49.24.26.09.67.38.86.55.32.29.29.75.37,1.17.07.33.17.72.05,1.06-.19.55-1.03.84-1.53,1.05-.43.19-.61.32-1.1.15-.4-.14-1.25-.7-1.48-1.02-.36-.5-.19-.66.03-1.3Z" />
  <circle class="cls-1" cx="18.57" cy="19" r=".78" />
  <circle class="cls-1" cx="16.57" cy="20" r=".78" />
  <path class="cls-2"
    d="m8.39,8.8c-.18.18-.64,1.03-.85,1.13-.44.22-.99.24-1.47.16-.44-.08-1.06-.66-1.4-1-.22-.22-.49-.73-.6-1-.19-.46.09-.91.21-1.39.1-.37.19-.82.49-1.12.47-.47,1.49-.33,2.1-.3.54.03.79-.01,1.2.4.35.35.93,1.36,1,1.8.12.7-.15.78-.69,1.32Z" />
  <path class="cls-2"
    d="m6.05,15.21c.25.12,1.32.31,1.51.5.39.39.61.97.69,1.51.07.5-.33,1.37-.57,1.85-.16.31-.6.78-.85,1-.42.36-1,.23-1.55.27-.43.03-.95.09-1.36-.12-.67-.33-.88-1.46-1.07-2.13-.16-.59-.29-.83,0-1.42.24-.49,1.11-1.47,1.56-1.71.7-.38.88-.12,1.64.26Z" />
  <path class="cls-2"
    d="m11.57,13.43c0-.2-.25-.96-.19-1.14.12-.39.41-.72.73-.96.29-.22.99-.26,1.38-.27.26,0,.71.12.93.21.38.15.49.57.7.91.16.27.38.58.39.92.01.55-.64,1.07-1,1.42-.32.31-.44.48-.91.49-.4.01-1.33-.21-1.63-.42-.48-.32-.38-.52-.4-1.15Z" />
  <path class="cls-2"
    d="m15.64,6.63c0-.31-.38-1.44-.29-1.72.18-.59.62-1.09,1.11-1.45.44-.33,1.49-.39,2.09-.41.39-.01,1.07.18,1.41.31.57.22.74.85,1.06,1.37.25.4.57.87.59,1.38.02.82-.96,1.61-1.51,2.14-.48.46-.66.72-1.38.74-.6.02-2-.32-2.46-.63-.73-.49-.57-.79-.6-1.73Z" />
</svg>