<?xml version="1.0" encoding="UTF-8"?>
<svg id="ENGINEERED_ASTEROID" xmlns="http://www.w3.org/2000/svg" viewBox="0 0 24 24" height="24"
  width="24">
  <defs>
    <style>
      .cls-1 {
      fill: #b6b5d1;
      stroke-width: 0px;
      }

      .cls-2 {
      stroke-miterlimit: 10;
      }

      .cls-2, .cls-3 {
      fill: none;
      stroke: #b6b5d1;
      stroke-width: 2px;
      }

      .cls-3 {
      stroke-linecap: round;
      stroke-linejoin: round;
      }
    </style>
  </defs>
  <g>
    <circle class="cls-2" cx="6.32" cy="15.48" r="1.8" />
    <circle class="cls-1" cx="5.42" cy="9.17" r="1.8" />
    <path class="cls-2"
      d="m11.06,4.19c-1.85-.11-5.18-.12-6.35,1.05-.93.93-1.23,2.37-1.55,3.55-.4,1.51-1.28,2.96-.68,4.42.35.87,1.21,2.48,1.91,3.19,1.08,1.08,3.07,2.94,4.46,3.19.35.06,1.84.1,2.2.13V4.19Z" />
  </g>
  <path class="cls-3"
    d="m14.75,4.28l1.15-1.44,2.99,2.11-.7,1.62c.32.22.83.66,1.15,1.29.29.56.48,1.31.51,1.85l1.87.41v3.74s-1.87.41-1.87.41c.09.6-.08,1.17-.39,1.79-.36.71-.83,1.07-1.27,1.35l.74,1.86-3.03,1.91-1.15-1.49c-.12.02-.24.03-.35.03h-.37v-3.67s.02,0,.03,0c2.24,0,3.1-1.82,3.1-4.06s-.86-4.06-3.1-4.06c0,0-.02,0-.03,0v-3.67h.37c.11,0,.23,0,.35.03Z" />
</svg>