<?xml version="1.0" encoding="UTF-8"?>
<svg id="FUEL_STATION" xmlns="http://www.w3.org/2000/svg" viewBox="0 0 24 24" height="24"
  width="24">
  <defs>
    <style>
      .cls-1 {
      fill: #b6b5d1;
      stroke-width: 0px;
      }
    </style>
  </defs>
  <path class="cls-1"
    d="m3.75,21V5c0-.55.2-1.02.59-1.41s.86-.59,1.41-.59h6c.55,0,1.02.2,1.41.59s.59.86.59,1.41v7h1c.55,0,1.02.2,1.41.59s.59.86.59,1.41v4.5c0,.28.1.52.29.71s.43.29.71.29.52-.1.71-.29.29-.43.29-.71v-7.2c-.15.08-.31.14-.48.16s-.34.04-.53.04c-.7,0-1.29-.24-1.78-.73-.48-.48-.73-1.08-.73-1.78,0-.53.15-1.01.44-1.44s.68-.73,1.16-.91l-2.1-2.1,1.05-1.05,3.7,3.6c.25.25.44.54.56.88s.19.68.19,1.03v9.5c0,.7-.24,1.29-.73,1.78s-1.08.73-1.78.73-1.29-.24-1.78-.73-.73-1.08-.73-1.78v-5h-1.5v7.5H3.75Zm2-11h6v-5h-6v5Zm12,0c.28,0,.52-.1.71-.29s.29-.43.29-.71-.1-.52-.29-.71-.43-.29-.71-.29-.52.1-.71.29-.29.43-.29.71.1.52.29.71.43.29.71.29Zm-12,9h6v-7h-6v7Zm6,0h-6,6Z" />
</svg>