<?xml version="1.0" encoding="UTF-8"?>
<svg id="NEBULA_ALT" xmlns="http://www.w3.org/2000/svg" viewBox="0 0 24 24" height="24"
  width="24">
  <defs>
    <style>
      .cls-1 {
      fill: none;
      stroke: #b6b5d1;
      stroke-linecap: round;
      stroke-linejoin: round;
      stroke-width: 2px;
      }
    </style>
  </defs>
  <path class="cls-1"
    d="m8.18,10.67c-.14-.42-.21-.87-.21-1.33,0-2.35,1.9-4.25,4.25-4.25s4.25,1.9,4.25,4.25c0,.36-.04.7-.13,1.03" />
  <path class="cls-1" d="m17.56,10.42c-1.93.32-3.92.49-5.95.49-1.72,0-3.41-.12-5.06-.36" />
  <path class="cls-1" d="m16.33,8.09c3-1,6,0,5.76,3.25-.14,1.98-2.53,3.37-5.05,3.37" />
  <path class="cls-1"
    d="m5.26,13.02c-1.37-.6-3.37-2.19-3.37-3.37,0-1.86,2.26-3.37,5.05-3.37.64,0,1.25.08,1.81.22" />
  <path class="cls-1"
    d="m3.76,12.78c-.63.46-1.03,1.15-1.03,1.92,0,1.4,1.32,2.53,2.95,2.53.26,0,.52-.03.76-.09" />
  <path class="cls-1"
    d="m19.51,14.96c.04.19.06.39.06.59,0,1.86-1.7,3.37-3.79,3.37-1.22,0-2.3-.51-2.99-1.3" />
  <path class="cls-1" d="m6.1,15.13c0,2.09,1.7,3.79,3.79,3.79,1.59,0,2.96-.98,3.52-2.37" />
</svg>