<?xml version="1.0" encoding="UTF-8"?>
<svg id="ORBITAL_STATION" xmlns="http://www.w3.org/2000/svg" viewBox="0 0 24 24" height="24"
  width="24">
  <defs>
    <style>
      .cls-1 {
      fill: #b6b5d1;
      stroke-width: 0px;
      }
    </style>
  </defs>
  <path class="cls-1"
    d="m19.17,22.59c-3.36,0-9.81-5.95-10.64-6.74C7.56,14.94-.87,6.87,1.6,4.25c2.47-2.62,11.04,5.29,12.01,6.21,2.39,2.25,4.44,4.57,5.78,6.56,1.68,2.49,2.05,4.09,1.15,5.05h0c-.35.37-.82.53-1.37.53ZM3.14,5.7c.16,1.05,2.14,4.35,6.76,8.7,4.63,4.35,8.04,6.12,9.1,6.22-.16-1.05-2.14-4.35-6.76-8.7C7.61,7.56,4.2,5.79,3.14,5.7Z" />
  <path class="cls-1"
    d="m9.56,14.76c-.7-.66-1.33-1.28-1.91-1.89l-4.54,3.49,1.02,2.45h2.13l2.15,2.56,3.63-4.41c-.78-.65-1.61-1.37-2.48-2.2Z" />
  <path class="cls-1"
    d="m20.56,16.41c-.89,0-1.92-.53-2.73-1-1.44-.85-3.16-2.18-4.82-3.75-1.59-1.49-6.62-6.51-4.8-8.45,1.83-1.94,7.14,2.78,8.73,4.27,1.59,1.49,6.62,6.51,4.8,8.45h0c-.32.35-.74.48-1.18.48ZM10.01,4.89c.48.99,1.87,2.95,4.38,5.31s4.55,3.63,5.57,4.05c-.48-.99-1.87-2.95-4.38-5.31-2.51-2.36-4.55-3.63-5.57-4.05Z" />
  <g>
    <path class="cls-1"
      d="m14.06,10.57c-.54-.52-1.03-1.02-1.48-1.5l-3.56,2.74c.66.7,1.39,1.44,2.22,2.22.65.61,1.26,1.15,1.85,1.65l2.84-3.45c-.59-.48-1.21-1.03-1.87-1.66Z" />
    <path class="cls-1"
      d="m22.41,2.83c-1-.46-1.77.04-1.77.04l-6.69,5.15c.51.57,1.1,1.18,1.77,1.82.43.41.85.78,1.25,1.13l5.44-6.6s1-1.09,0-1.54Z" />
  </g>
</svg>